<svg width="237" height="51" viewBox="13 6 237 51" fill="none" xmlns="http://www.w3.org/2000/svg">
  <path d="M35.7346 40.3201V40.1247C35.7346 40.0596 35.6042 39.9294 35.6042 39.9294H38.9951V40.9062C38.9951 41.7528 39.6472 42.5343 40.4949 42.5343H44.8639C45.7116 42.5343 46.1681 41.7528 46.1681 40.9062V39.9945H83.3373V40.8411C83.3373 41.6877 84.1198 42.4692 84.9675 42.4692H89.3365C90.1842 42.4692 91.1624 41.6877 91.1624 40.8411V39.8642H109.747C110.073 41.8179 111.768 43.7717 113.92 43.7717H116.072C119.528 48.3303 124.875 51.6516 131.005 52.368C131.266 53.4751 132.244 54.3217 133.418 54.3217C134.592 54.3217 135.635 53.41 135.831 52.3029C142.025 51.5865 147.373 48.3955 150.829 43.5763C150.959 43.6414 151.024 43.7717 151.155 43.7717H153.372C155.198 43.7717 156.763 42.4692 157.35 40.5155H184.542L236.188 40.5806C237.622 40.5806 239.057 40.1899 240.296 39.4084C243.23 37.4547 246.817 34.5241 246.817 31.2028C246.817 27.8815 243.295 24.8858 240.296 22.9972C239.057 22.2157 237.687 21.8249 236.188 21.8249L157.61 21.8901C157.284 19.8712 155.589 18.3734 153.437 18.3734H150.959C150.894 18.3734 150.829 18.3083 150.764 18.3083C146.851 12.9681 140.526 9.51654 133.353 9.51654C126.245 9.51654 119.92 13.1635 116.007 18.3734H113.855C112.029 18.3734 110.464 19.6759 109.877 20.9783H91.0972V20.262C91.0972 19.4154 90.1842 18.4385 89.2713 18.4385H84.9023C84.0546 18.4385 83.2721 19.3502 83.2721 20.262V21.1086H46.1029V20.262C46.1029 19.4154 45.7116 18.4385 44.7987 18.4385H40.4297C39.582 18.4385 38.9299 19.3502 38.9299 20.262V21.0435H35.6694V20.9132C35.6694 18.7641 33.8435 17.2011 31.6916 17.2011H20.3453C18.1934 17.2011 16.1719 18.7641 16.1719 20.9132V40.3201C16.1719 42.4692 18.1934 43.9019 20.3453 43.9019H31.7569C33.9088 43.8368 35.7346 42.4041 35.7346 40.3201ZM133.418 53.6054C132.635 53.6054 131.918 53.0844 131.657 52.368C132.244 52.4331 132.831 52.4331 133.418 52.4331C134.005 52.4331 134.592 52.4331 135.179 52.368C134.918 53.0844 134.266 53.6054 133.418 53.6054ZM239.578 24.1694C241.795 25.6021 245.512 28.4676 245.512 31.333C245.512 33.1565 244.013 34.8497 242.382 36.2824C242.317 36.2173 242.252 36.0219 242.122 36.0219H237.492C237.296 36.0219 237.166 36.1522 237.166 36.3475C237.166 36.5429 237.296 36.6732 237.492 36.6732H241.795C241.013 37.3244 240.296 37.9105 239.644 38.3664C238.665 39.0176 237.492 39.4084 236.253 39.4084L157.741 39.4735V26.2534H159.502C159.697 26.2534 159.828 26.1231 159.828 25.9277C159.828 25.7324 159.697 25.6021 159.502 25.6021H157.741V23.1925H236.253C237.361 23.1925 238.535 23.5182 239.578 24.1694ZM153.502 19.741C155.133 19.741 156.372 20.9132 156.372 22.4762V39.3432C156.372 40.9713 155.067 42.4692 153.502 42.4692H151.676C153.763 39.213 154.937 35.2404 154.937 31.0725C154.937 26.9046 153.763 22.932 151.676 19.6759H153.502V19.741ZM133.418 10.819C144.569 10.819 153.633 19.8712 153.633 31.0074C153.633 42.1436 144.569 51.1958 133.418 51.1958C122.267 51.1958 113.203 42.1436 113.203 31.0074C113.203 19.8712 122.267 10.819 133.418 10.819ZM113.855 19.741H115.159C113.073 22.9972 111.899 26.9697 111.899 31.1376C111.899 35.3056 113.073 39.2781 115.159 42.5343H113.855C112.225 42.5343 110.66 40.9713 110.66 39.4084V22.5413C110.725 20.9132 112.29 19.741 113.855 19.741ZM109.421 22.3459V35.3707H107.921C107.725 35.3707 107.595 35.5009 107.595 35.6963C107.595 35.8917 107.725 36.0219 107.921 36.0219H109.421V38.6269H91.1624V22.3459H109.421ZM89.8582 40.9713C89.8582 41.1016 89.7278 41.2318 89.5974 41.2318H84.9675C84.8371 41.2318 84.7067 41.1016 84.7067 40.9713V20.0666C84.7067 19.9364 84.8371 19.8061 84.9675 19.8061H89.5974C89.7278 19.8061 89.8582 19.9364 89.8582 20.0666V40.9713ZM83.3373 22.4762V27.621H80.6637C80.4681 27.621 80.3377 27.7512 80.3377 27.9466C80.3377 28.1419 80.4681 28.2722 80.6637 28.2722H83.3373V38.7571H46.1681V22.4762H83.3373ZM45.516 40.9713C45.516 41.1016 45.3856 41.2318 45.2551 41.2318H40.6253C40.4949 41.2318 40.3645 41.1016 40.3645 40.9713V20.0666C40.3645 19.9364 40.4949 19.8061 40.6253 19.8061H45.2551C45.3856 19.8061 45.516 19.9364 45.516 20.0666V40.9713ZM38.9951 38.6269H31.9525C30.7135 38.6269 29.8658 37.7151 29.8658 36.5429V32.896C29.8658 32.8309 29.7354 32.8309 29.7354 32.8309H34.4304V34.5241C34.4304 34.9148 34.6913 35.1753 35.0825 35.1753C35.4738 35.1753 35.7346 34.9148 35.7346 34.5241V26.7092C35.7346 26.3185 35.4738 26.058 35.0825 26.058C34.6913 26.058 34.4304 26.3185 34.4304 26.7092V28.2071H29.8658V24.6253C29.8658 23.453 30.7787 22.3459 31.9525 22.3459H38.9951V38.6269ZM28.5616 24.6253V28.2071H20.0844V21.1737C20.0844 20.7178 20.4105 20.4573 20.8669 20.4573H31.2352C31.6917 20.4573 32.0829 20.4573 32.0829 21.1086H31.9525C29.9962 21.0435 28.5616 22.7367 28.5616 24.6253ZM19.8236 29.5096H34.4304V31.4633H19.8236C19.5628 31.4633 19.4323 31.0725 19.4323 30.812V30.291C19.4323 30.0957 19.5628 29.5096 19.8236 29.5096ZM20.0844 32.7657H28.4964C28.4964 32.7657 28.5616 32.7657 28.5616 32.8309V36.5429C28.5616 38.4966 30.0614 39.9294 31.9525 39.9294H32.0829C32.0829 40.5806 31.6917 40.5806 31.2352 40.5806H20.8669C20.4105 40.5806 20.0844 40.5155 20.0844 39.9945V32.7657ZM17.4761 40.3201V20.9132C17.4761 19.4805 18.9107 18.5036 20.3453 18.5036H31.7569C33.1915 18.5036 34.4304 19.5456 34.4304 20.9132V21.1086H32.735C32.735 20.4573 32.0177 19.8061 31.2352 19.8061H20.8669C20.0192 19.8061 19.4323 20.3271 19.4323 21.1737V28.6629C18.7802 28.8583 18.1281 29.5747 18.1281 30.3562V30.8771C18.1281 31.7238 18.7802 32.375 19.4323 32.5704V40.0596C19.4323 40.9062 20.0192 41.297 20.8669 41.297H31.2352C32.0829 41.297 32.735 40.6457 32.735 39.9945H34.3C34.3 39.9945 34.3652 40.1247 34.3652 40.1899V40.3852C34.3652 41.818 33.1262 42.6646 31.6916 42.6646H20.3453C18.9107 42.5343 17.4761 41.6877 17.4761 40.3201Z" fill="black"/>
</svg>